<?xml version="1.0" encoding="utf-8"?>
<svg viewBox="0 0 24 24" fill="none" xmlns="http://www.w3.org/2000/svg">
  <path fill-rule="evenodd" clip-rule="evenodd" d="M 6.25 4 C 6.25 3.586 6.586 3.25 7 3.25 L 17 3.25 C 17.414 3.25 17.75 3.586 17.75 4 C 17.75 4.414 17.414 4.75 17 4.75 L 16.75 4.75 L 16.75 10 C 16.75 10.053 16.769 10.123 16.852 10.214 C 16.939 10.31 17.077 10.403 17.245 10.466 C 18.589 10.972 19.193 12.219 19.467 13.159 C 19.61 13.645 19.68 14.099 19.714 14.43 C 19.732 14.596 19.741 14.734 19.745 14.832 C 19.748 14.881 19.749 14.921 19.749 14.949 L 19.75 14.983 L 19.75 14.994 L 19.75 14.998 L 19.75 14.999 L 19.75 15 C 19.75 15.414 19.414 15.75 19 15.75 L 12.75 15.75 L 12.75 20 C 12.75 20.414 12.414 20.75 12 20.75 C 11.586 20.75 11.25 20.414 11.25 20 L 11.25 15.75 L 5 15.75 C 4.586 15.75 4.25 15.414 4.25 15 L 4.25 15 L 4.25 14.999 L 4.25 14.998 L 4.25 14.994 L 4.25 14.983 L 4.251 14.949 C 4.251 14.921 4.252 14.881 4.255 14.832 C 4.259 14.734 4.268 14.596 4.286 14.43 C 4.32 14.099 4.39 13.645 4.533 13.159 C 4.807 12.219 5.411 10.972 6.755 10.466 C 6.923 10.403 7.061 10.31 7.148 10.214 C 7.231 10.123 7.25 10.053 7.25 10 L 7.25 4.75 L 7 4.75 C 6.586 4.75 6.25 4.414 6.25 4 Z" fill="black" transform="matrix(0.9999999999999999, 0, 0, 0.9999999999999999, -2.7755575615628914e-17, 0)"/>
</svg>